Coordinates
version=1
nRows=20
nColumns=34
inDegrees=yes

Units are S.I. units (second, meters, Newtons, ...)
If the header above contains a line with 'inDegrees', this indicates whether rotational values are in degrees (yes) or radians (no).

endheader
time	pelvis_tilt	pelvis_list	pelvis_rotation	pelvis_tx	pelvis_ty	pelvis_tz	hip_flexion_r	hip_adduction_r	hip_rotation_r	knee_angle_r	ankle_angle_r	subtalar_angle_r	mtp_angle_r	hip_flexion_l	hip_adduction_l	hip_rotation_l	knee_angle_l	ankle_angle_l	subtalar_angle_l	mtp_angle_l	lumbar_extension	lumbar_bending	lumbar_rotation	arm_flex_r	arm_add_r	arm_rot_r	elbow_flex_r	pro_sup_r	arm_flex_l	arm_add_l	arm_rot_l	elbow_flex_l	pro_sup_l
      1.90000000	      0.95351495	      2.92482987	      0.45548594	     -0.07369785	      0.90429481	     -0.18681079	     23.02527322	     -0.54007576	     -6.36281322	     -6.78472422	      1.96541529	      4.12175368	     10.99723274	    -18.44694774	      4.33869724	      1.39203985	     -9.36162416	     11.54521016	      4.79628998	      8.13031238	     -6.50953261	     -0.80010940	     -7.89056906	    -10.39953928	    -15.36141119	      2.01436399	     19.77204067	     90.00000000	     -0.59051355	    -19.69430192	     11.19487994	     34.59826899	     90.00000000
      1.91000000	      1.09608190	      2.91311304	      0.57267982	     -0.05984748	      0.90291840	     -0.18581051	     23.24283922	     -0.49752141	     -6.35793511	     -8.97265354	      2.35555439	      3.22389304	     10.92653103	    -18.88919025	      4.16583086	      1.28395124	    -10.43435798	     10.96476736	      5.25385290	      8.48127333	     -6.49845249	     -0.68976712	     -8.04802840	    -10.41190774	    -15.42661189	      2.08528198	     19.69098527	     90.00000000	     -0.82219028	    -19.57968626	     11.06840530	     34.38327645	     90.00000000
      1.92000000	      1.10236645	      2.69904388	      0.70603914	     -0.04547326	      0.90146883	     -0.18442775	     23.18042662	     -0.10938138	     -5.77664303	    -10.55164338	      1.63488966	      1.61889836	     10.54699876	    -18.99380502	      3.68586698	      0.67876810	    -11.88610608	     10.28168759	      6.41372320	      9.44578788	     -6.21466563	     -0.42491123	     -8.13398310	    -10.37585948	    -15.46972618	      2.32383273	     19.20838506	     90.00000000	     -1.07996279	    -19.40677197	     10.97612779	     33.90838006	     90.00000000
      1.93000000	      1.19072613	      2.32406597	      0.89363756	     -0.03114502	      0.90042318	     -0.18338830	     22.94519978	      0.37164140	     -5.97147205	    -11.53022353	     -1.81751509	     -0.78243696	      9.42505575	    -19.14308349	      3.06692651	      0.39509414	    -13.37774665	      9.59617518	      6.87238446	     10.24009329	     -6.05346645	      0.07769690	     -8.21804444	    -10.61865092	    -15.61650603	      2.51577912	     19.52576364	     90.00000000	     -1.45252809	    -19.22770022	     10.93663849	     33.85078994	     90.00000000
      1.94000000	      1.18948495	      1.69693934	      0.65252072	     -0.01704822	      0.89959774	     -0.18152607	     22.71281019	      1.37638393	     -4.81565511	    -12.09743565	     -4.02819813	     -4.23560849	     10.05452173	    -19.05528231	      2.26299062	     -0.60913351	    -14.93786627	      7.23931134	      7.38331014	     22.87592468	     -5.79557146	      0.82377567	     -7.82034116	    -10.61743454	    -15.82318739	      3.21911864	     19.30513111	     90.00000000	     -1.62202109	    -18.87097211	     10.89264262	     33.26421609	     90.00000000
      1.95000000	      1.29763221	      1.14706833	      0.67933904	     -0.00309341	      0.89936718	     -0.18038923	     22.94493337	      1.93975568	     -4.83533827	    -14.10680053	     -4.62112987	     -4.64501278	      9.97106249	    -18.90339517	      1.54629570	     -0.84389127	    -16.82944415	      5.95581609	      7.32838051	     22.87218775	     -5.72935705	      1.55545700	     -7.66870032	    -10.76709690	    -16.04172902	      3.09121311	     19.66536053	     90.00000000	     -1.93624185	    -18.58745478	     10.78064053	     33.18143989	     90.00000000
      1.96000000	      1.01819771	      0.35944007	      0.48235643	      0.01066034	      0.89896287	     -0.17869688	     23.52427356	      3.02378869	     -3.69396522	    -16.18325312	     -5.87544477	     -6.45977871	      9.72109899	    -18.06714639	      0.58469864	     -1.53570686	    -19.17489131	      4.43151831	      7.97131258	     23.78475543	     -5.18598701	      2.51521630	     -7.24862553	    -10.70471996	    -16.21859106	      3.07451919	     19.30092507	     90.00000000	     -1.94681643	    -18.08669537	     10.92566380	     31.94346675	     90.00000000
      1.97000000	      0.97997016	     -0.35331673	      0.34668515	      0.02465800	      0.89902694	     -0.17732429	     23.77967435	      3.92430972	     -3.05258836	    -18.09986760	     -6.34808913	     -6.75542455	      9.73243958	    -17.37377548	     -0.25103919	     -1.92007017	    -21.61461394	      2.24360087	      7.66177830	     24.33193475	     -4.93313470	      3.41281212	     -6.94349352	    -10.74608904	    -16.50124444	      3.11241034	     19.47360313	     90.00000000	     -2.30849075	    -17.69863372	     10.90406614	     31.57973270	     90.00000000
      1.98000000	      0.93439303	     -0.98167287	      0.23831643	      0.03851435	      0.89910404	     -0.17584225	     23.76293391	      4.75555268	     -2.38422905	    -19.40437454	     -6.85927854	     -6.83071881	      9.67352591	    -16.41105106	     -1.03299062	     -2.26635486	    -24.41083901	     -0.17658331	      7.21455376	     24.85320285	     -4.69752450	      4.17184449	     -6.68145387	    -10.74534081	    -16.74661929	      3.14269649	     19.64547010	     90.00000000	     -2.69980929	    -17.36540125	     10.83835479	     31.20936106	     90.00000000
      1.99000000	      0.67587305	     -1.58872320	      0.12960741	      0.05226427	      0.89892382	     -0.17399713	     23.74992659	      5.65583354	     -1.76147122	    -20.40421975	     -6.86796735	     -7.83955506	      9.38909733	    -15.06812432	     -1.83548520	     -2.68606187	    -27.05377242	     -5.25382796	      5.39542899	     46.26501495	     -4.19370043	      4.84581025	     -6.38918603	    -10.65871413	    -16.95993260	      3.81871639	     19.48994289	     90.00000000	     -3.07467597	    -17.12243837	     10.97999183	     30.71744188	     90.00000000
      2.00000000	      0.66547033	     -2.19696349	      0.12002200	      0.06608117	      0.89916168	     -0.17225254	     23.39546701	      6.46057884	     -1.76586235	    -21.43565863	     -5.86291501	     -8.15780977	      9.51365289	    -13.83998002	     -2.74762328	     -2.97609798	    -30.04139028	     -8.54447706	      5.11329426	     46.19860531	     -4.01932042	      5.52475464	     -6.22408313	    -10.69364740	    -17.13818419	      3.69038177	     19.93863119	     90.00000000	     -3.58315834	    -16.90206950	     10.82680025	     30.55866032	     90.00000000
      2.01000000	      0.48137197	     -2.71464219	      0.08017686	      0.07945257	      0.89937550	     -0.17038032	     23.05126223	      7.20354294	     -1.61234588	    -22.06389510	     -5.19087410	     -8.26494951	      9.41760409	    -12.29248103	     -3.56514310	     -3.02823034	    -33.11087867	    -11.83864992	      4.80418587	     46.38337579	     -3.70001621	      6.09063129	     -5.94878554	    -10.66058874	    -17.28071788	      3.57916119	     20.21094231	     90.00000000	     -3.93361291	    -16.65893283	     10.76468816	     30.14458229	     90.00000000
      2.02000000	      0.51075250	     -3.31676806	      0.26347037	      0.09257975	      0.90004257	     -0.16870205	     22.28580970	      7.94799927	     -1.69166216	    -22.38048642	     -4.04632702	     -8.38278098	      9.48956471	    -10.82815431	     -4.52663726	     -2.82724740	    -36.27376153	    -14.74991033	      4.64617967	     46.27031206	     -3.66861280	      6.72112616	     -5.83365271	    -10.64701269	    -17.39257152	      3.47477342	     20.63058182	     90.00000000	     -4.28692152	    -16.51692230	     10.73432638	     29.92502493	     90.00000000
      2.03000000	      0.56300967	     -3.88838051	      0.42880259	      0.10537755	      0.90103158	     -0.16756750	     21.40323051	      8.60958046	     -1.79705737	    -22.53733647	     -3.00809553	     -8.27759660	      9.51912181	     -9.19545641	     -5.38402348	     -2.57763826	    -39.50848272	    -17.64014196	      4.04160134	     45.88600499	     -3.70408194	      7.40535604	     -5.62186551	    -10.55945067	    -17.60432432	      3.35051266	     21.04862854	     90.00000000	     -4.47831012	    -16.28811578	     10.73287929	     29.65211123	     90.00000000
      2.04000000	      0.57321417	     -4.51839543	      0.75761448	      0.11788994	      0.90218628	     -0.16675120	     20.48930755	      9.25383236	     -2.20394875	    -22.47600970	     -2.07623327	     -8.00660186	      9.44874092	     -7.34687235	     -6.27096830	     -2.12260003	    -42.72435102	    -20.03739447	      2.96500436	     45.10036155	     -3.71534898	      8.14707405	     -5.54659824	    -10.42964418	    -17.83004147	      3.17357226	     21.43056462	     90.00000000	     -4.62197457	    -16.00168895	     10.87534957	     29.16710911	     90.00000000
      2.05000000	      0.54958378	     -4.88853284	      1.24954926	      0.13010985	      0.90331874	     -0.16659701	     19.71785600	      9.49071102	     -2.91403455	    -22.67708643	     -0.06608428	     -6.71575418	      4.76217340	     -5.26210944	     -6.74383243	     -1.20808809	    -46.19903522	    -19.10779670	      1.67109271	     31.57742225	     -3.66447017	      8.66813781	     -5.42308796	    -10.54224956	    -18.02781343	      2.51027082	     22.14558883	     90.00000000	     -4.35839660	    -15.77848244	     11.95205540	     28.13605677	     90.00000000
      2.06000000	      0.66967754	     -5.27326084	      1.72704905	      0.14202230	      0.90471937	     -0.16637971	     18.60900390	      9.83461331	     -3.38366667	    -22.39903728	      0.74016315	     -6.38482784	      4.96366328	     -3.30844679	     -7.20214847	     -0.41818045	    -49.32961719	    -18.06454066	      1.17437585	     31.76841212	     -3.86073723	      9.15740327	     -5.37408909	    -10.37160129	    -18.25595383	      2.49386503	     22.64773551	     90.00000000	     -4.34606712	    -15.56848228	     12.15546665	     27.72343762	     90.00000000
      2.07000000	      0.76284359	     -5.54704622	      2.24341751	      0.15374321	      0.90619852	     -0.16603865	     17.45891781	     10.11379536	     -3.75258448	    -21.97543338	      1.55743775	     -6.23370404	      5.04574602	     -1.28861981	     -7.50133944	      0.35458708	    -52.06518515	    -17.00249211	      0.31028799	     31.75865897	     -4.01420154	      9.50198260	     -5.31467783	    -10.19479718	    -18.46611439	      2.46474967	     23.12093691	     90.00000000	     -4.22907840	    -15.43915065	     12.78486109	     27.11270441	     90.00000000
      2.08000000	      0.90432348	     -5.67836044	      2.65080526	      0.16528621	      0.90786965	     -0.16554738	     16.16521244	     10.29560002	     -4.01418446	    -21.35125282	      2.30629906	     -6.06952409	      5.14227029	      0.61930624	     -7.59706290	      0.95043776	    -54.35530800	    -15.83219526	     -0.67197911	     31.75813924	     -4.26231889	      9.67714961	     -5.11663767	     -9.94667924	    -18.65606854	      2.48491757	     23.53128880	     90.00000000	     -4.24905482	    -15.37673700	     13.00231487	     26.93775186	     90.00000000
      2.09000000	      0.85386077	     -5.58809739	      3.05014526	      0.17663730	      0.90944310	     -0.16520699	     15.15454781	     10.18815632	     -4.45712613	    -20.88867076	      3.03383766	     -5.51159829	      5.03962329	      2.73174528	     -7.30440147	      1.60405379	    -56.23097030	    -14.95926461	     -2.09736616	     31.46026534	     -4.29253783	      9.60002531	     -4.86224377	     -9.78024673	    -18.83218258	      2.68962126	     24.01727057	     90.00000000	     -4.00433616	    -15.31722138	     13.96691435	     26.12594338	     90.00000000
